<svg width="40" height="40" viewBox="0 0 40 40" fill="none" xmlns="http://www.w3.org/2000/svg">
<g clip-path="url(#clip0_19_715)">
<path d="M13.7432 33.75H3.74316C3.08012 33.75 2.44424 33.4866 1.9754 33.0178C1.50656 32.5489 1.24316 31.913 1.24316 31.25V3.75C1.24316 3.08696 1.50656 2.45107 1.9754 1.98223C2.44424 1.51339 3.08012 1.25 3.74316 1.25H28.7432C29.4062 1.25 30.0421 1.51339 30.5109 1.98223C30.9798 2.45107 31.2432 3.08696 31.2432 3.75V15M13.7432 8.75H23.7432M8.74316 16.25H23.7432M8.74316 23.75H21.2432M37.7115 24.7833L24.9998 37.5L18.7498 38.75L19.9998 32.5L32.7182 19.7833C33.3792 19.1223 34.2758 18.7509 35.2107 18.7509C36.1455 18.7509 37.0421 19.1223 37.7032 19.7833L37.7182 19.7967C38.0453 20.1245 38.3046 20.5135 38.4813 20.9416C38.658 21.3696 38.7487 21.8283 38.7481 22.2914C38.7474 22.7545 38.6556 23.2129 38.4777 23.6405C38.2999 24.0681 38.0395 24.4564 37.7115 24.7833Z" stroke="black" stroke-width="2" stroke-linecap="round" stroke-linejoin="round"/>
</g>
<defs>
<clipPath id="clip0_19_715">
<rect width="40" height="40" fill="white"/>
</clipPath>
</defs>
</svg>
