<svg width="54" height="52" viewBox="0 0 54 52" fill="none" xmlns="http://www.w3.org/2000/svg">
<g clip-path="url(#clip0_19_734)">
<path d="M13.7422 45.75H3.74219C3.07915 45.75 2.44326 45.4866 1.97442 45.0178C1.50558 44.5489 1.24219 43.913 1.24219 43.25V15.75C1.24219 15.087 1.50558 14.4511 1.97442 13.9822C2.44326 13.5134 3.07915 13.25 3.74219 13.25H28.7422C29.4052 13.25 30.0411 13.5134 30.51 13.9822C30.9788 14.4511 31.2422 15.087 31.2422 15.75V17M13.7422 20.75H23.7422M8.74219 28.25H23.7422M8.74219 35.75H21.2422M37.7105 36.7833L24.9989 49.5L18.7489 50.75L19.9989 44.5L32.7172 31.7833C33.3782 31.1223 34.2748 30.7509 35.2097 30.7509C36.1445 30.7509 37.0411 31.1223 37.7022 31.7833L37.7172 31.7967C38.0443 32.1245 38.3036 32.5135 38.4804 32.9416C38.6571 33.3696 38.7477 33.8283 38.7471 34.2914C38.7465 34.7545 38.6546 35.2129 38.4767 35.6405C38.2989 36.0681 38.0385 36.4564 37.7105 36.7833Z" stroke="black" stroke-width="2" stroke-linecap="round" stroke-linejoin="round"/>
</g>
<path fill-rule="evenodd" clip-rule="evenodd" d="M39 1.5625C31.5788 1.5625 25.5625 7.57875 25.5625 15C25.5625 22.4212 31.5788 28.4375 39 28.4375C46.4212 28.4375 52.4375 22.4212 52.4375 15C52.4375 7.57875 46.4212 1.5625 39 1.5625Z" fill="black"/>
<path d="M32.7569 14.7111C32.9998 14.7068 33.2348 14.797 33.4126 14.9626L36.5001 18.0501L44.5876 9.96255C44.7653 9.79695 45.0003 9.7068 45.2432 9.71108C45.4861 9.71537 45.7178 9.81376 45.8896 9.98552C46.0613 10.1573 46.1597 10.389 46.164 10.6319C46.1683 10.8748 46.0782 11.1098 45.9126 11.2876L37.1626 20.0376C36.9868 20.2131 36.7485 20.3117 36.5001 20.3117C36.2516 20.3117 36.0133 20.2131 35.8376 20.0376L32.0876 16.2876C31.922 16.1098 31.8318 15.8748 31.8361 15.6319C31.8404 15.389 31.9388 15.1573 32.1105 14.9855C32.2823 14.8138 32.514 14.7154 32.7569 14.7111Z" fill="white"/>
<defs>
<clipPath id="clip0_19_734">
<rect width="40" height="40" fill="white" transform="translate(0 12)"/>
</clipPath>
</defs>
</svg>
