<svg width="48" height="48" viewBox="0 0 48 48" fill="none" xmlns="http://www.w3.org/2000/svg">
<g id="Group">
<path id="Shape" fill-rule="evenodd" clip-rule="evenodd" d="M0 13.3333C0 5.97067 5.97067 0 13.3333 0H34.6667C42.0293 0 48 5.97067 48 13.3333V34.6667C48 42.0293 42.0293 48 34.6667 48H13.3333C5.97067 48 0 42.0293 0 34.6667V13.3333ZM42.6673 8.00016C42.6673 6.52816 41.4727 5.3335 40.0007 5.3335C38.5287 5.3335 37.334 6.52816 37.334 8.00016C37.334 9.47216 38.5287 10.6668 40.0007 10.6668C41.4727 10.6668 42.6673 9.47216 42.6673 8.00016ZM23.9993 10.6666C31.362 10.6666 37.3327 16.6373 37.3327 24C37.3327 31.3626 31.362 37.3333 23.9993 37.3333C16.6367 37.3333 10.666 31.3626 10.666 24C10.666 16.6373 16.6367 10.6666 23.9993 10.6666ZM16 24.0001C16 19.5818 19.5817 16.0001 24 16.0001C28.4183 16.0001 32 19.5818 32 24.0001C32 28.4184 28.4183 32.0001 24 32.0001C19.5817 32.0001 16 28.4184 16 24.0001Z" fill="white"/>
</g>
</svg>
