<svg width="48" height="48" viewBox="0 0 48 48" fill="none" xmlns="http://www.w3.org/2000/svg">
<g id="Group">
<path id="Shape" fill-rule="evenodd" clip-rule="evenodd" d="M5.33333 0H42.6667C45.6133 0 48 2.38667 48 5.33333V42.6667C48 45.6133 45.6133 48 42.6667 48H5.33333C2.38667 48 0 45.6133 0 42.6667V5.33333C0 2.38667 2.38667 0 5.33333 0ZM9.27148 37.3332H15.9995V18.6665H9.27148V37.3332ZM12.5172 15.2455C10.4612 15.2455 9.08789 13.8748 9.08789 12.0455C9.08789 10.2161 10.4586 8.84546 12.7439 8.84546C14.7999 8.84546 16.1732 10.2161 16.1732 12.0455C16.1732 13.8748 14.8026 15.2455 12.5172 15.2455ZM33.4872 37.3332H39.9992V27.1306C39.9992 21.2719 37.3939 18.6666 34.1379 18.6666C30.8819 18.6666 29.1459 19.7519 28.2792 21.2719V18.6666H21.5513V37.3332H28.2792V27.1306C28.2792 24.0932 30.4499 23.6586 31.1006 23.6586C31.7512 23.6586 33.4872 24.3092 33.4872 27.1306V37.3332Z" fill="white"/>
</g>
</svg>
